<svg width="30" height="29" viewBox="0 0 30 29" fill="none" xmlns="http://www.w3.org/2000/svg">
<path d="M6.80927 28.9995V9.43327H0.37844V28.9995H6.80927ZM3.59469 6.76022C5.83723 6.76022 7.23311 5.25776 7.23311 3.38019C7.19133 1.46027 5.83732 -0.000488281 3.63724 -0.000488281C1.43751 -0.000488281 -0.000976562 1.4603 -0.000976562 3.38019C-0.000976562 5.25785 1.39456 6.76022 3.55271 6.76022H3.59449H3.59469ZM10.3687 28.9995H16.7996V18.0728C16.7996 17.488 16.8413 16.9038 17.0112 16.4858C17.4761 15.3174 18.5342 14.1073 20.3106 14.1073C22.6377 14.1073 23.5686 15.9016 23.5686 18.5319V28.9994H29.9991V17.7803C29.9991 11.7703 26.8264 8.97391 22.5953 8.97391C19.1262 8.97391 17.603 10.9349 16.7568 12.2706H16.7997V9.43286H10.3689C10.4533 11.2689 10.3689 28.9991 10.3689 28.9991L10.3687 28.9995Z" fill="white"/>
</svg>
