<svg width="426" height="506" viewBox="0 0 426 506" fill="none" xmlns="http://www.w3.org/2000/svg">
<g filter="url(#filter0_b_675_313)">
<path fill-rule="evenodd" clip-rule="evenodd" d="M426 0H0V506H426V0ZM286.09 195.311V159.863H265.381C266.425 153.144 267.295 146.252 267.992 139.185L231.273 137.622C230.809 147.236 230.403 154.65 230.055 159.863H223.268V131.714H278.607V98.8722H125.121V131.714H180.46V159.863H173.499C173.035 152.449 172.687 145.035 172.455 137.622L135.737 139.185C136.317 146.252 137.187 153.144 138.347 159.863H117.639V195.311H180.46V229.195H223.268V195.311H286.09ZM286.438 369.596V339.535H281.217V298.874H170.889V308.431L157.489 303.218C148.092 299.396 141.015 296.731 136.259 295.225L117.291 321.811C127.964 324.591 141.653 329.167 158.359 335.538L170.889 315.382V339.535H163.058V342.141C152.965 337.276 143.277 333.627 133.996 331.194L116.594 356.39C122.395 357.78 127.732 359.46 132.604 361.429C137.593 363.283 142.871 365.658 148.44 368.554L133.3 366.295C132.604 368.959 131.966 371.45 131.386 373.766L129.82 380.022C127.384 389.637 125.295 397.398 123.555 403.306C121.931 409.214 119.843 415.47 117.291 422.073L154.183 430.066C159.403 405.391 163.754 385.814 167.234 371.334L154.705 369.422L163.058 357.259V369.596H169.67V430.24H204.474V406.955H244.673V407.477V408.345C244.789 408.809 244.383 409.156 243.455 409.388C242.643 409.62 240.264 409.736 236.32 409.736C232.375 409.736 228.953 409.678 226.053 409.562C228.605 412.805 230.403 415.991 231.447 419.119C232.608 422.131 233.768 426.127 234.928 431.109C247.805 431.109 257.376 430.587 263.641 429.545C270.022 428.502 274.256 426.88 276.344 424.679C278.549 422.362 279.651 419.003 279.651 414.601V369.596H286.438ZM205.518 320.421H246.239V323.549H209.695V339.535H205.518V320.421ZM235.798 339.535V336.581H246.239V339.535H235.798ZM249.719 357.606V360.56H200.82V357.606H249.719ZM204.474 377.589H244.673V380.37H204.474V377.589ZM204.474 395.139V392.185H244.673V395.139H204.474Z" fill="white"/>
</g>
<path d="M0 0V-3H-3V0H0ZM426 0H429V-3H426V0ZM426 506V509H429V506H426ZM0 506H-3V509H0V506ZM0 3H426V-3H0V3ZM423 0V506H429V0H423ZM426 503H0V509H426V503ZM3 506V0H-3V506H3Z" fill="white"/>
<defs>
<filter id="filter0_b_675_313" x="-20" y="-20" width="466" height="546" filterUnits="userSpaceOnUse" color-interpolation-filters="sRGB">
<feFlood flood-opacity="0" result="BackgroundImageFix"/>
<feGaussianBlur in="BackgroundImage" stdDeviation="10"/>
<feComposite in2="SourceAlpha" operator="in" result="effect1_backgroundBlur_675_313"/>
<feBlend mode="normal" in="SourceGraphic" in2="effect1_backgroundBlur_675_313" result="shape"/>
</filter>
</defs>
</svg>
