<svg width="1153" height="70" viewBox="0 0 1153 70" fill="none" xmlns="http://www.w3.org/2000/svg">
<rect x="1" y="1" width="1151" height="68" stroke="white" stroke-width="2"/>
<line x1="998" y1="1" x2="998" y2="70" stroke="white" stroke-width="2"/>
<path d="M501.465 31.0816C502.089 31.0814 502.587 31.1412 502.959 31.2611C503.331 31.3809 503.709 31.5548 504.093 31.7827C504.225 31.8546 504.339 31.9146 504.435 31.9626C504.543 32.0105 504.633 32.0345 504.705 32.0345C504.813 32.0344 504.897 31.9744 504.957 31.8544C505.017 31.7224 505.065 31.5183 505.101 31.2423L505.515 31.2422C505.455 32.0462 505.427 33.4142 505.428 35.3462L505.014 35.3464C504.966 34.6984 504.815 34.0804 504.563 33.4925C504.322 32.9046 503.974 32.4307 503.517 32.0709C503.073 31.699 502.551 31.5132 501.951 31.5134C501.363 31.5136 500.883 31.6818 500.511 32.0179C500.152 32.342 499.972 32.7861 499.972 33.3501C499.973 33.7701 500.063 34.1361 500.243 34.448C500.424 34.7599 500.676 35.0479 501 35.3117C501.324 35.5636 501.823 35.9115 502.495 36.3552L503.071 36.751C503.78 37.2188 504.338 37.6266 504.747 37.9744C505.155 38.3223 505.485 38.7302 505.738 39.1981C506.002 39.654 506.134 40.188 506.135 40.8C506.136 41.568 505.938 42.216 505.543 42.7442C505.147 43.2603 504.607 43.6505 503.924 43.9147C503.252 44.179 502.502 44.3112 501.674 44.3115C501.002 44.3117 500.444 44.2519 500 44.1321C499.556 44.0122 499.148 43.8504 498.775 43.6465C498.511 43.4786 498.307 43.3947 498.163 43.3947C498.055 43.3948 497.971 43.4608 497.911 43.5928C497.852 43.7128 497.804 43.9109 497.768 44.1869L497.354 44.187C497.401 43.431 497.424 41.811 497.422 39.327L497.836 39.3268C497.921 40.6708 498.222 41.7627 498.739 42.6025C499.255 43.4304 500.048 43.8441 501.116 43.8437C501.764 43.8435 502.298 43.6693 502.717 43.3212C503.137 42.973 503.346 42.4749 503.346 41.8269C503.345 41.1549 503.129 40.579 502.696 40.0992C502.264 39.6193 501.58 39.0795 500.643 38.4799C499.923 38.0121 499.346 37.6043 498.914 37.2565C498.482 36.9086 498.127 36.5007 497.851 36.0328C497.574 35.5529 497.436 35.001 497.435 34.377C497.435 33.657 497.614 33.0509 497.974 32.5588C498.345 32.0547 498.837 31.6825 499.449 31.4423C500.061 31.2021 500.733 31.0818 501.465 31.0816ZM517.644 42.542C517.8 42.9379 517.98 43.2259 518.184 43.4058C518.389 43.5857 518.587 43.6816 518.779 43.6936L518.779 44.0536C518.059 44.0178 517.147 44.0001 516.043 44.0005C514.819 44.001 513.907 44.0193 513.307 44.0555L513.307 43.6955C513.763 43.6713 514.087 43.6172 514.279 43.5331C514.471 43.4371 514.566 43.275 514.566 43.047C514.566 42.831 514.494 42.5431 514.349 42.1831L513.267 39.2315L509.343 39.2329L508.876 40.475C508.541 41.3391 508.373 42.0052 508.374 42.4732C508.374 42.9172 508.506 43.2291 508.77 43.4091C509.047 43.577 509.449 43.6728 509.977 43.6966L509.977 44.0566C509.161 44.0209 508.417 44.0032 507.745 44.0034C507.193 44.0036 506.737 44.0218 506.377 44.0579L506.377 43.6979C506.965 43.5897 507.48 42.9595 507.923 41.8073L512.018 31.2759C512.15 31.2879 512.36 31.2938 512.648 31.2937C512.936 31.2936 513.14 31.2875 513.26 31.2755L517.644 42.542ZM513.141 38.8715L511.354 34.0122L509.487 38.8728L513.141 38.8715ZM534.383 31.6642C533.975 31.6883 533.681 31.7364 533.501 31.8085C533.321 31.8805 533.195 32.0186 533.123 32.2226C533.063 32.4266 533.033 32.7566 533.034 33.2126L533.042 42.1406C533.042 42.5966 533.072 42.9266 533.133 43.1306C533.205 43.3346 533.331 43.4725 533.511 43.5445C533.703 43.6164 533.997 43.6643 534.393 43.6882L534.393 44.0482C533.733 44.0124 532.791 43.9947 531.567 43.9951C530.283 43.9956 529.335 44.0139 528.723 44.0501L528.723 43.6901C529.155 43.666 529.467 43.6179 529.659 43.5458C529.863 43.4737 530.001 43.3357 530.073 43.1317C530.144 42.9276 530.18 42.5976 530.18 42.1416L530.171 32.7276L525.843 44.0691L525.555 44.0692L520.685 32.4789L520.693 41.1009C520.693 41.8089 520.73 42.3309 520.802 42.6669C520.874 42.9909 521.031 43.2308 521.271 43.3867C521.511 43.5306 521.901 43.6325 522.441 43.6923L522.441 44.0523C521.973 44.0165 521.325 43.9987 520.497 43.999C519.837 43.9992 519.315 44.0174 518.931 44.0535L518.931 43.6935C519.327 43.6334 519.615 43.5313 519.795 43.3872C519.987 43.2432 520.112 43.0151 520.172 42.7031C520.244 42.3911 520.279 41.9291 520.279 41.3171L520.272 33.2171C520.271 32.7611 520.235 32.4311 520.163 32.2271C520.103 32.0231 519.977 31.8852 519.785 31.8132C519.605 31.7413 519.317 31.6934 518.921 31.6695L518.92 31.3095C519.304 31.3454 519.826 31.3632 520.486 31.363C521.59 31.3626 522.538 31.3443 523.33 31.308L526.974 40.0727L530.278 31.3596L531.556 31.3591C532.78 31.3587 533.722 31.3404 534.382 31.3042L534.383 31.6642ZM547.05 31.6598C546.654 31.7199 546.36 31.822 546.168 31.9661C545.989 32.1101 545.863 32.3382 545.791 32.6502C545.731 32.9622 545.702 33.4242 545.702 34.0362L545.706 38.8062C545.708 40.5222 545.463 41.7943 544.972 42.6225C544.648 43.1506 544.181 43.5648 543.569 43.865C542.957 44.1532 542.207 44.2975 541.319 44.2978C539.927 44.2982 538.847 43.9986 538.078 43.3989C537.526 42.9551 537.154 42.3972 536.961 41.7253C536.768 41.0413 536.672 40.0874 536.67 38.8634L536.666 33.2114C536.665 32.7554 536.629 32.4254 536.557 32.2214C536.496 32.0174 536.37 31.8795 536.178 31.8075C535.998 31.7356 535.71 31.6877 535.314 31.6638L535.314 31.3038C535.926 31.3396 536.862 31.3573 538.122 31.3569C539.37 31.3564 540.324 31.3381 540.984 31.3019L540.984 31.6619C540.552 31.686 540.234 31.7341 540.03 31.8062C539.838 31.8783 539.706 32.0163 539.635 32.2203C539.563 32.4244 539.527 32.7544 539.528 33.2104L539.533 39.9964C539.535 41.2564 539.715 42.1863 540.076 42.7862C540.448 43.3741 541.097 43.6678 542.021 43.6675C543.221 43.6671 544.066 43.2648 544.558 42.4606C545.049 41.6445 545.294 40.4924 545.293 39.0044L545.288 34.2524C545.288 33.5564 545.245 33.0404 545.161 32.7044C545.077 32.3685 544.915 32.1285 544.674 31.9846C544.434 31.8287 544.056 31.7208 543.54 31.661L543.54 31.301C543.996 31.3368 544.644 31.3546 545.484 31.3543C546.156 31.3541 546.678 31.3359 547.05 31.2998L547.05 31.6598ZM557.867 41.304C557.868 42.408 557.911 43.32 557.995 44.04C557.179 44.0043 555.805 43.9867 553.873 43.9874C551.257 43.9883 549.301 44.007 548.005 44.0434L548.005 43.6834C548.401 43.6593 548.689 43.6112 548.869 43.5391C549.061 43.4671 549.187 43.329 549.246 43.125C549.318 42.921 549.354 42.591 549.353 42.135L549.346 33.207C549.345 32.751 549.309 32.421 549.237 32.217C549.177 32.013 549.051 31.8751 548.858 31.8031C548.678 31.7312 548.39 31.6833 547.994 31.6594L547.994 31.2994C549.29 31.335 551.246 31.3523 553.862 31.3514C555.626 31.3508 556.88 31.3324 557.624 31.2961C557.541 32.2921 557.5 33.1801 557.5 33.9601C557.501 34.4881 557.519 34.8961 557.555 35.1841L557.141 35.1843C556.96 33.9003 556.636 33.0004 556.167 32.4846C555.699 31.9688 555.038 31.711 554.186 31.7113L553.448 31.7116C553.076 31.7117 552.806 31.7418 552.638 31.8018C552.471 31.8619 552.357 31.9819 552.297 32.162C552.237 32.33 552.207 32.606 552.207 32.99L552.211 37.454L552.787 37.4538C553.423 37.4536 553.903 37.2194 554.227 36.7513C554.562 36.2832 554.796 35.7251 554.927 35.077L555.341 35.0769C555.306 35.5809 555.288 36.1449 555.289 36.7689L555.29 37.6329C555.29 38.2449 555.327 39.0969 555.4 40.1889L554.986 40.189C554.732 38.6051 554 37.8134 552.788 37.8138L552.212 37.814L552.216 42.35C552.216 42.734 552.246 43.016 552.306 43.1959C552.367 43.3639 552.481 43.4779 552.649 43.5378C552.817 43.5978 553.087 43.6277 553.459 43.6275L554.341 43.6272C555.193 43.6269 555.877 43.3387 556.392 42.7625C556.92 42.1743 557.291 41.1842 557.505 39.7921L557.919 39.792C557.884 40.188 557.866 40.692 557.867 41.304ZM565.073 31.6535C564.641 31.6777 564.323 31.7258 564.119 31.7978C563.927 31.8699 563.795 32.008 563.723 32.212C563.651 32.416 563.615 32.746 563.616 33.202L563.624 42.346C563.624 42.73 563.654 43.012 563.715 43.192C563.775 43.36 563.877 43.4739 564.021 43.5339C564.177 43.5938 564.423 43.6237 564.759 43.6236L565.641 43.6233C566.457 43.623 567.159 43.2568 567.746 42.5246C568.345 41.7924 568.735 40.8202 568.913 39.6082L569.327 39.608C569.292 40.0161 569.274 40.5441 569.275 41.1921C569.276 42.3441 569.319 43.292 569.403 44.036C568.587 44.0003 567.213 43.9828 565.281 43.9834C562.665 43.9844 560.709 44.003 559.413 44.0395L559.413 43.6795C559.809 43.6553 560.097 43.6072 560.277 43.5352C560.469 43.4631 560.595 43.3251 560.655 43.1211C560.726 42.917 560.762 42.587 560.762 42.131L560.754 33.203C560.753 32.747 560.717 32.417 560.645 32.2131C560.585 32.0091 560.459 31.8711 560.267 31.7992C560.087 31.7272 559.799 31.6793 559.403 31.6555L559.402 31.2955C560.014 31.3313 560.962 31.3489 562.246 31.3485C563.47 31.3481 564.412 31.3297 565.072 31.2935L565.073 31.6535ZM580.774 37.3361C582.335 37.4555 583.481 37.8151 584.213 38.4149C584.946 39.0146 585.313 39.7225 585.313 40.5385C585.314 41.6545 584.877 42.5186 584.002 43.131C583.126 43.7313 581.908 44.0317 580.348 44.0322C580 44.0323 579.706 44.0264 579.466 44.0145C578.674 43.9908 577.9 43.9791 577.144 43.9793C575.908 43.9798 574.984 43.9981 574.372 44.0343L574.372 43.6743C574.768 43.6502 575.056 43.6021 575.236 43.53C575.428 43.4579 575.554 43.3199 575.614 43.1159C575.685 42.9118 575.721 42.5818 575.721 42.1258L575.713 33.1978C575.712 32.7418 575.676 32.4118 575.604 32.2079C575.544 32.0039 575.418 31.8659 575.226 31.794C575.046 31.7221 574.758 31.6742 574.362 31.6503L574.361 31.2903C574.973 31.3261 575.885 31.3438 577.097 31.3433L579.095 31.3247C579.335 31.3126 579.611 31.3065 579.923 31.3064C581.363 31.3059 582.461 31.5635 583.218 32.0792C583.986 32.595 584.371 33.2788 584.372 34.1308C584.372 34.8268 584.067 35.4749 583.455 36.0751C582.856 36.6753 581.962 37.0837 580.774 37.3001L580.774 37.3361ZM579.69 31.6484C579.366 31.6486 579.126 31.6906 578.97 31.7747C578.826 31.8587 578.724 32.0088 578.664 32.2248C578.604 32.4408 578.574 32.7648 578.575 33.1968L578.578 37.2648L579.352 37.2646C580.132 37.2643 580.678 37.0001 580.99 36.472C581.301 35.9319 581.457 35.2178 581.456 34.3298C581.455 33.4298 581.31 32.7579 581.022 32.314C580.746 31.8701 580.302 31.6482 579.69 31.6484ZM579.826 43.6184C581.494 43.6178 582.327 42.5675 582.325 40.4675C582.324 39.5195 582.084 38.7996 581.603 38.3078C581.123 37.8159 580.367 37.5702 579.335 37.5706L578.579 37.5708L578.583 42.1248C578.583 42.5568 578.613 42.8748 578.673 43.0788C578.734 43.2828 578.848 43.4267 579.016 43.5107C579.196 43.5826 579.466 43.6185 579.826 43.6184ZM592.989 31.0318C594.261 31.0314 595.371 31.289 596.319 31.8047C597.28 32.3203 598.025 33.0701 598.553 34.0539C599.082 35.0257 599.347 36.1896 599.348 37.5456C599.35 38.8656 599.081 40.0357 598.541 41.0559C598.002 42.0761 597.247 42.8684 596.276 43.4327C595.316 43.997 594.218 44.2794 592.982 44.2798C591.71 44.2803 590.594 44.0227 589.634 43.507C588.685 42.9913 587.947 42.2476 587.418 41.2758C586.889 40.2919 586.624 39.122 586.623 37.766C586.621 36.446 586.89 35.2759 587.43 34.2558C587.969 33.2356 588.718 32.4433 589.677 31.879C590.649 31.3146 591.753 31.0323 592.989 31.0318ZM592.917 31.3559C592.257 31.3561 591.675 31.6263 591.172 32.1665C590.668 32.6946 590.279 33.4388 590.004 34.3989C589.741 35.359 589.609 36.457 589.611 37.693C589.612 38.941 589.763 40.039 590.063 40.9868C590.376 41.9347 590.791 42.6666 591.307 43.1824C591.836 43.6982 592.418 43.956 593.054 43.9558C593.714 43.9556 594.296 43.6914 594.799 43.1632C595.303 42.623 595.686 41.8729 595.949 40.9128C596.225 39.9527 596.362 38.8547 596.36 37.6187C596.359 36.3707 596.202 35.2727 595.89 34.3248C595.589 33.3769 595.174 32.6451 594.646 32.1293C594.129 31.6134 593.553 31.3556 592.917 31.3559ZM614.203 43.8945C614.001 45.2505 613.587 46.1867 612.964 46.7029C612.7 46.919 612.364 47.0871 611.956 47.2073C611.56 47.3394 611.122 47.4055 610.642 47.4057C609.994 47.4059 609.352 47.3042 608.716 47.1004C608.092 46.8966 607.318 46.5909 606.393 46.1832C606.165 46.0873 605.913 45.9793 605.637 45.8594C605.373 45.7515 605.073 45.6316 604.737 45.4998L604.305 45.3739C604.077 45.494 603.825 45.5841 603.549 45.6442C603.285 45.7163 603.033 45.7523 602.793 45.7524C602.541 45.7525 602.337 45.7106 602.181 45.6266C602.025 45.5547 601.947 45.4407 601.947 45.2847C601.946 44.9607 602.276 44.7986 602.936 44.7984C603.38 44.7982 603.836 44.8821 604.304 45.0499C604.712 44.9298 605.144 44.7676 605.6 44.5635C605.684 44.5274 605.81 44.4734 605.978 44.4013C606.146 44.3413 606.296 44.2872 606.428 44.2392C605.312 44.1316 604.333 43.8079 603.493 43.2682C602.664 42.7165 602.022 41.9727 601.565 41.0369C601.12 40.101 600.897 39.0091 600.896 37.7611C600.895 36.4411 601.164 35.271 601.703 34.2508C602.242 33.2306 602.991 32.4384 603.951 31.874C604.922 31.3097 606.026 31.0273 607.262 31.0269C608.534 31.0264 609.644 31.2841 610.593 31.7997C611.553 32.3154 612.298 33.0651 612.827 34.0489C613.356 35.0208 613.621 36.1847 613.622 37.5407C613.623 38.8127 613.372 39.9528 612.869 40.9609C612.366 41.9571 611.658 42.7434 610.747 43.3197C609.835 43.896 608.798 44.2083 607.634 44.2568C607.346 44.2929 607.088 44.3469 606.86 44.419C606.632 44.4911 606.362 44.5932 606.05 44.7253C605.666 44.8934 605.294 45.0316 604.934 45.1397L606.393 45.2652C607.917 45.3967 609.015 45.4623 609.687 45.462C610.131 45.4619 610.581 45.4317 611.037 45.3716C611.781 45.2873 612.368 45.1251 612.8 44.885C613.232 44.6568 613.592 44.2967 613.879 43.8046L614.203 43.8945ZM603.884 37.6881C603.885 38.9361 604.036 40.034 604.337 40.9819C604.65 41.9298 605.064 42.6616 605.581 43.1775C606.109 43.6933 606.691 43.9511 607.327 43.9509C607.987 43.9506 608.569 43.6864 609.073 43.1583C609.576 42.6181 609.96 41.8679 610.223 40.9079C610.498 39.9478 610.635 38.8497 610.634 37.6137C610.633 36.3657 610.476 35.2678 610.163 34.3199C609.862 33.372 609.448 32.6401 608.919 32.1243C608.403 31.6085 607.826 31.3507 607.19 31.3509C606.53 31.3511 605.949 31.6213 605.445 32.1615C604.942 32.6897 604.552 33.4338 604.277 34.3939C604.014 35.354 603.883 36.4521 603.884 37.6881ZM626.38 31.6322C625.984 31.6924 625.69 31.7945 625.499 31.9386C625.319 32.0826 625.193 32.3107 625.121 32.6227C625.061 32.9347 625.032 33.3967 625.032 34.0087L625.036 38.7787C625.038 40.4947 624.793 41.7668 624.302 42.595C623.978 43.1231 623.511 43.5372 622.899 43.8375C622.287 44.1257 621.537 44.2699 620.649 44.2702C619.257 44.2707 618.177 43.9711 617.408 43.3714C616.856 42.9276 616.484 42.3697 616.291 41.6977C616.098 41.0138 616.002 40.0598 616.001 38.8358L615.996 33.1838C615.995 32.7278 615.959 32.3979 615.887 32.1939C615.827 31.9899 615.7 31.852 615.508 31.78C615.328 31.7081 615.04 31.6602 614.644 31.6363L614.644 31.2763C615.256 31.3121 616.192 31.3298 617.452 31.3293C618.7 31.3289 619.654 31.3106 620.314 31.2744L620.314 31.6344C619.882 31.6585 619.564 31.7066 619.36 31.7787C619.168 31.8507 619.037 31.9888 618.965 32.1928C618.893 32.3968 618.857 32.7269 618.858 33.1829L618.864 39.9689C618.865 41.2289 619.045 42.1588 619.406 42.7587C619.778 43.3465 620.427 43.6403 621.351 43.64C622.551 43.6396 623.396 43.2373 623.888 42.4331C624.379 41.6169 624.624 40.4649 624.623 38.9769L624.619 34.2249C624.618 33.5289 624.575 33.0129 624.491 32.6769C624.407 32.3409 624.245 32.101 624.005 31.9571C623.764 31.8012 623.386 31.6933 622.87 31.6335L622.87 31.2735C623.326 31.3093 623.974 31.3271 624.814 31.3268C625.486 31.3266 626.008 31.3084 626.38 31.2722L626.38 31.6322ZM632.886 31.63C632.478 31.6541 632.184 31.7022 632.005 31.7743C631.825 31.8464 631.699 31.9844 631.627 32.1884C631.567 32.3924 631.537 32.7225 631.538 33.1785L631.546 42.1065C631.546 42.5625 631.576 42.8924 631.636 43.0964C631.709 43.3004 631.835 43.4384 632.015 43.5103C632.195 43.5822 632.489 43.6301 632.897 43.654L632.897 44.014C632.249 43.9782 631.343 43.9605 630.179 43.9609C628.895 43.9614 627.947 43.9797 627.335 44.0159L627.335 43.6559C627.731 43.6318 628.019 43.5837 628.199 43.5116C628.391 43.4395 628.517 43.3015 628.576 43.0975C628.648 42.8935 628.684 42.5634 628.684 42.1074L628.676 33.1794C628.675 32.7235 628.639 32.3935 628.567 32.1895C628.507 31.9855 628.381 31.8476 628.189 31.7756C628.008 31.7037 627.72 31.6558 627.324 31.6319L627.324 31.2719C627.936 31.3077 628.884 31.3254 630.168 31.3249C631.332 31.3245 632.238 31.3062 632.886 31.27L632.886 31.63ZM638.591 31.034C639.215 31.0338 639.714 31.0936 640.086 31.2135C640.458 31.3334 640.836 31.5072 641.22 31.7351C641.352 31.8071 641.466 31.867 641.562 31.915C641.67 31.9629 641.76 31.9869 641.832 31.9869C641.94 31.9868 642.024 31.9268 642.084 31.8068C642.144 31.6748 642.192 31.4708 642.228 31.1947L642.642 31.1946C642.582 31.9986 642.553 33.3666 642.555 35.2986L642.141 35.2988C642.093 34.6508 641.942 34.0328 641.69 33.4449C641.449 32.857 641.101 32.3831 640.644 32.0233C640.2 31.6515 639.678 31.4656 639.078 31.4658C638.49 31.466 638.01 31.6342 637.638 31.9703C637.279 32.2945 637.099 32.7385 637.099 33.3025C637.1 33.7225 637.19 34.0885 637.37 34.4004C637.551 34.7124 637.803 35.0003 638.127 35.2642C638.451 35.5161 638.95 35.8639 639.622 36.3077L640.198 36.7035C640.907 37.1712 641.465 37.579 641.873 37.9269C642.282 38.2747 642.612 38.6826 642.865 39.1505C643.129 39.6064 643.261 40.1404 643.262 40.7524C643.263 41.5204 643.065 42.1685 642.67 42.6966C642.274 43.2127 641.734 43.6029 641.051 43.8672C640.379 44.1314 639.629 44.2636 638.801 44.2639C638.129 44.2642 637.571 44.2044 637.127 44.0845C636.683 43.9647 636.275 43.8028 635.902 43.5989C635.638 43.431 635.434 43.3471 635.29 43.3472C635.182 43.3472 635.098 43.4132 635.038 43.5452C634.978 43.6653 634.931 43.8633 634.895 44.1393L634.481 44.1394C634.528 43.3834 634.551 41.7634 634.549 39.2794L634.963 39.2793C635.048 40.6232 635.349 41.7151 635.866 42.555C636.382 43.3828 637.175 43.7965 638.243 43.7961C638.891 43.7959 639.424 43.6217 639.844 43.2736C640.264 42.9254 640.473 42.4274 640.473 41.7794C640.472 41.1074 640.256 40.5314 639.823 40.0516C639.391 39.5717 638.706 39.032 637.77 38.4323C637.05 37.9645 636.473 37.5567 636.041 37.2089C635.609 36.861 635.254 36.4532 634.978 35.9853C634.701 35.5054 634.563 34.9534 634.562 34.3294C634.562 33.6094 634.741 33.0033 635.101 32.5112C635.472 32.0071 635.964 31.6349 636.576 31.3947C637.188 31.1545 637.859 31.0343 638.591 31.034ZM655.547 31.2621C655.464 32.4022 655.423 33.4222 655.424 34.3222C655.425 34.8862 655.443 35.3422 655.479 35.6902L655.065 35.6903C654.776 34.2144 654.379 33.1765 653.875 32.5767C653.382 31.9769 652.704 31.6771 651.84 31.6774L651.426 31.6776L651.435 41.9556C651.435 42.4596 651.483 42.8255 651.58 43.0535C651.688 43.2815 651.868 43.4374 652.12 43.5213C652.384 43.5932 652.798 43.6351 653.362 43.6469L653.363 44.0069C651.85 43.9714 650.71 43.9538 649.942 43.9541C649.186 43.9543 648.088 43.9727 646.649 44.0092L646.648 43.6492C647.212 43.637 647.62 43.5949 647.872 43.5228C648.136 43.4387 648.316 43.2826 648.412 43.0546C648.519 42.8266 648.573 42.4605 648.573 41.9565L648.564 31.6785L648.168 31.6787C647.592 31.6789 647.1 31.8051 646.692 32.0572C646.296 32.3093 645.955 32.7295 645.667 33.3176C645.38 33.8937 645.134 34.6857 644.931 35.6938L644.517 35.694C644.553 35.3459 644.571 34.8899 644.57 34.3259C644.569 33.4259 644.526 32.406 644.441 31.266C645.533 31.3016 647.387 31.319 650.003 31.3181C652.619 31.3171 654.467 31.2985 655.547 31.2621Z" fill="#DDDDDD"/>
</svg>
